<svg id="visual" viewBox="0 0 450 100" width="450" height="100" xmlns="http://www.w3.org/2000/svg" xmlns:xlink="http://www.w3.org/1999/xlink" version="1.1"><path d="M0 71L10.7 73.2C21.3 75.3 42.7 79.7 64.2 78.8C85.7 78 107.3 72 128.8 70.7C150.3 69.3 171.7 72.7 193 74.3C214.3 76 235.7 76 257 74.2C278.3 72.3 299.7 68.7 321.2 70.2C342.7 71.7 364.3 78.3 385.8 80.7C407.3 83 428.7 81 439.3 80L450 79L450 101L439.3 101C428.7 101 407.3 101 385.8 101C364.3 101 342.7 101 321.2 101C299.7 101 278.3 101 257 101C235.7 101 214.3 101 193 101C171.7 101 150.3 101 128.8 101C107.3 101 85.7 101 64.2 101C42.7 101 21.3 101 10.7 101L0 101Z" fill="#FFFFFF" stroke-linecap="round" stroke-linejoin="miter"></path></svg>